<?xml version="1.0" encoding="UTF-8" standalone="no"?>
<svg
   xmlns:dc="http://purl.org/dc/elements/1.1/"
   xmlns:cc="http://creativecommons.org/ns#"
   xmlns:rdf="http://www.w3.org/1999/02/22-rdf-syntax-ns#"
   xmlns:svg="http://www.w3.org/2000/svg"
   xmlns="http://www.w3.org/2000/svg"
   viewBox="0 0 126.27079 51.680267"
   height="51.680267"
   width="126.27079"
   xml:space="preserve"
   id="svg2"
   version="1.1"><metadata
     id="metadata8"><rdf:RDF><cc:Work
         rdf:about=""><dc:format>image/svg+xml</dc:format><dc:type
           rdf:resource="http://purl.org/dc/dcmitype/StillImage" /><dc:title></dc:title></cc:Work></rdf:RDF></metadata><defs
     id="defs6" /><g
     transform="matrix(1.3333333,0,0,-1.3333333,-151.05066,103.85573)"
     id="g10"><path
       d="m 161.008,70.3918 c 3.007,-2.1852 2.667,-9.4172 -0.432,-11.232 -3.548,2.107 -3.033,9.4613 0.432,11.232"
       style="fill:#000000;fill-opacity:1;fill-rule:nonzero;stroke:none;stroke-width:0.1"
       id="path28" /><path
       d="m 159.496,58.2961 c -2.622,-2.6863 -10.109,-3.3641 -12.312,0.216 1.86,3.6629 11.09,4.7293 12.312,-0.216"
       style="fill:#000000;fill-opacity:1;fill-rule:nonzero;stroke:none;stroke-width:0.1"
       id="path30" /><path
       d="m 173.968,58.9438 c 0,-0.1438 0,-0.2879 0,-0.4317 -2.368,-3.2348 -10.305,-3.0183 -12.743,0 2.385,3.1387 10.148,3.8914 12.743,0.4317"
       style="fill:#000000;fill-opacity:1;fill-rule:nonzero;stroke:none;stroke-width:0.1"
       id="path32" /><path
       d="m 124.225,59.8125 c 0.856,-1.4906 0.311,-2.8246 -0.9,-3.15 -3.813,-1.0246 -3.178,5.6516 0.9,3.15"
       style="fill:#000000;fill-opacity:1;fill-rule:nonzero;stroke:none;stroke-width:0.1"
       id="path34" /><path
       d="m 199.375,60.0375 c 1.84,-1.1469 1.49,-4.2953 -1.687,-3.4875 -1.734,1.2289 -1.364,4.0668 1.687,3.4875"
       style="fill:#000000;fill-opacity:1;fill-rule:nonzero;stroke:none;stroke-width:0.1"
       id="path36" /><path
       d="m 160.792,57.648 c 3.089,-1.98 2.035,-8.9316 -0.216,-11.0164 -3.612,1.4645 -3.642,9.7762 0.216,11.0164"
       style="fill:#000000;fill-opacity:1;fill-rule:nonzero;stroke:none;stroke-width:0.1"
       id="path38" /></g></svg>